<?xml version="1.0" encoding="UTF-8" standalone="no"?>
<svg width="30px" height="22px" viewBox="0 0 30 22" version="1.1" xmlns="http://www.w3.org/2000/svg" xmlns:xlink="http://www.w3.org/1999/xlink" xmlns:sketch="http://www.bohemiancoding.com/sketch/ns">
    <!-- Generator: Sketch 3.3.3 (12072) - http://www.bohemiancoding.com/sketch -->
    <title>camera</title>
    <desc>Created with Sketch.</desc>
    <defs></defs>
    <g id="/ETC-(everything-else)" stroke="none" stroke-width="1" fill="none" fill-rule="evenodd" sketch:type="MSPage">
        <g id="logbook" sketch:type="MSArtboardGroup" transform="translate(-1030.000000, -216.000000)" fill="#000000">
            <g id="entry" sketch:type="MSLayerGroup" transform="translate(533.000000, 183.000000)">
                <g id="camera" transform="translate(497.000000, 33.000000)" sketch:type="MSShapeGroup">
                    <path d="M27.7272,1.82792063 L8.1819,1.82792063 L8.1819,0.456904762 C8.1819,0.20447619 7.9785,0 7.7271,0 L4.0908,0 C3.8397,0 3.6363,0.20447619 3.6363,0.456904762 L3.6363,1.82761905 L2.2728,1.82761905 C1.0191,1.82792063 0,2.85271429 0,4.11244444 L0,18.7349048 C0,19.9946349 1.0191,21.0197302 2.2728,21.0197302 L27.7272,21.0197302 C28.9806,21.0197302 30,19.9946349 30,18.7349048 L30,4.11244444 C30,2.85271429 28.9806,1.82792063 27.7272,1.82792063 L27.7272,1.82792063 Z M4.5453,0.913809524 L7.2726,0.913809524 L7.2726,1.82761905 L4.5453,1.82761905 L4.5453,0.913809524 L4.5453,0.913809524 Z M2.2728,2.74173016 L27.7272,2.74173016 C28.4793,2.74173016 29.0907,3.35666667 29.0907,4.11244444 L29.0907,7.31107937 L21.5433,7.31107937 C20.1756,5.12004762 17.7573,3.65553968 15,3.65553968 C12.2427,3.65553968 9.8244,5.11974603 8.4567,7.31107937 L0.909,7.31107937 L0.909,4.11244444 C0.909,3.35666667 1.5207,2.74173016 2.2728,2.74173016 L2.2728,2.74173016 Z M15,4.56934921 C18.7599,4.56934921 21.8181,7.64403175 21.8181,11.4235238 C21.8181,15.2030159 18.7596,18.278 15,18.278 C11.2404,18.278 8.1819,15.2033175 8.1819,11.4238254 C8.1819,7.64433333 11.2401,4.56934921 15,4.56934921 L15,4.56934921 Z M27.7272,20.105619 L2.2728,20.105619 C1.5207,20.105619 0.9093,19.4906825 0.9093,18.7349048 L0.9093,8.22519048 L7.9665,8.22519048 C7.5252,9.20203175 7.2729,10.2829206 7.2729,11.4238254 C7.2729,15.7072698 10.7397,19.1918095 15,19.1918095 C19.2603,19.1918095 22.7271,15.7072698 22.7271,11.4238254 C22.7271,10.2829206 22.4751,9.20203175 22.0335,8.22519048 L29.0907,8.22519048 L29.0907,18.7349048 C29.0907,19.4909841 28.479,20.105619 27.7272,20.105619 L27.7272,20.105619 Z" id="Shape"></path>
                    <path d="M15,17.3641905 C18.2583,17.3641905 20.9091,14.6993651 20.9091,11.4238254 C20.9091,8.14828571 18.258,5.48346032 15,5.48346032 C11.742,5.48346032 9.0909,8.14828571 9.0909,11.4238254 C9.0909,14.6993651 11.7417,17.3641905 15,17.3641905 L15,17.3641905 Z M15,6.39726984 C17.7567,6.39726984 20.0001,8.6522381 20.0001,11.4238254 C20.0001,14.1954127 17.7564,16.4500794 15,16.4500794 C12.2436,16.4500794 9.9999,14.1951111 9.9999,11.4235238 C9.9999,8.65193651 12.2433,6.39726984 15,6.39726984 L15,6.39726984 Z" id="Shape"></path>
                    <path d="M15,13.7083492 C15.2511,13.7083492 15.4545,13.503873 15.4545,13.2514444 C15.4545,12.9990159 15.2511,12.7945397 15,12.7945397 C14.2479,12.7945397 13.6365,12.1796032 13.6365,11.4238254 C13.6365,11.1713968 13.4331,10.9669206 13.182,10.9669206 C12.9309,10.9669206 12.7275,11.1713968 12.7275,11.4238254 C12.7272,12.6835556 13.7463,13.7083492 15,13.7083492 L15,13.7083492 Z" id="Shape"></path>
                    <path d="M15,8.22519048 C16.7544,8.22519048 18.1818,9.66044444 18.1818,11.4238254 C18.1818,11.676254 18.3852,11.8807302 18.6363,11.8807302 C18.8874,11.8807302 19.0908,11.676254 19.0908,11.4238254 C19.0908,9.15588889 17.2557,7.31138095 15,7.31138095 C14.7489,7.31138095 14.5455,7.51585714 14.5455,7.76828571 C14.5455,8.02071429 14.7486,8.22519048 15,8.22519048 L15,8.22519048 Z" id="Shape"></path>
                    <path d="M24.0909,6.39726984 L27.7272,6.39726984 C27.9783,6.39726984 28.1817,6.19279365 28.1817,5.94036508 L28.1817,4.11244444 C28.1817,3.86001587 27.9783,3.65553968 27.7272,3.65553968 L24.0909,3.65553968 C23.8398,3.65553968 23.6364,3.86001587 23.6364,4.11244444 L23.6364,5.94036508 C23.6364,6.19279365 23.8395,6.39726984 24.0909,6.39726984 L24.0909,6.39726984 Z M24.5454,4.56934921 L27.2727,4.56934921 L27.2727,5.48315873 L24.5454,5.48315873 L24.5454,4.56934921 L24.5454,4.56934921 Z" id="Shape"></path>
                </g>
            </g>
        </g>
    </g>
</svg>